<?xml version="1.0" encoding="utf-8"?><!-- Uploaded to: SVG Repo, www.svgrepo.com, Generator: SVG Repo Mixer Tools -->
<svg fill="#0055ff" width="800px" height="800px" viewBox="-4.2 0 30 30" id="_02_-_Trash" data-name="02 - Trash"
  xmlns="http://www.w3.org/2000/svg">
  <path id="Path_151" data-name="Path 151" d="M26.8,9.6a3,3,0,0,0-3-3H8.2a3,3,0,0,0-3,3V28a3,3,0,0,0,3,3H23.8a3,3,0,0,0,3-3Zm-2,0V28a1,1,0,0,1-1,1H8.2a1,1,0,0,1-1-1V9.6a1,1,0,0,1,1-1H23.8a1,1,0,0,1,1,1Z" transform="translate(-5.2 -1)" fill-rule="evenodd"/>
  <path id="Path_152" data-name="Path 152" d="M7.6,5.8H24.4a1,1,0,0,0,0-2H7.6a1,1,0,0,0,0,2Z" transform="translate(-5.2 -1)" fill-rule="evenodd"/>
  <path id="Path_153" data-name="Path 153" d="M21.2,4.8V3a2,2,0,0,0-2-2H12.8a2,2,0,0,0-2,2V4.8a1,1,0,0,0,1,1h8.4A1,1,0,0,0,21.2,4.8ZM12.8,3h6.4v.8H12.8Z" transform="translate(-5.2 -1)" fill-rule="evenodd"/>
</svg>
